<svg xmlns="http://www.w3.org/2000/svg" version="1.1" xmlns:xlink="http://www.w3.org/1999/xlink" xmlns:svgjs="http://svgjs.dev/svgjs" width="1000" height="1125" viewBox="0 0 1000 1125"><g transform="matrix(1,0,0,1,0.0011008540699322111,0)"><svg viewBox="0 0 320 360" data-background-color="#ffffff" preserveAspectRatio="xMidYMid meet" height="1125" width="1000" xmlns="http://www.w3.org/2000/svg" xmlns:xlink="http://www.w3.org/1999/xlink"><g id="tight-bounds" transform="matrix(1,0,0,1,0.00010353528136874957,0)"><svg viewBox="0 0 320 360" height="360" width="320"><g><svg></svg></g><g><svg viewBox="0 0 320 360" height="360" width="320"><g><path xmlns="http://www.w3.org/2000/svg" d="M307.925 179.999l6.575-11.387c11.322-19.607 4.604-44.679-15.003-56.001l-11.387-6.575v-13.151c0-22.639-18.354-40.994-40.994-40.994h-13.151l-6.575-11.387c-11.322-19.607-36.393-26.325-56.001-15.003l-11.39 6.572-11.387-6.576c-19.607-11.318-44.679-4.6-56.001 15.007l-6.575 11.387h-13.151c-22.639 0-40.994 18.354-40.994 40.994v13.151l-11.387 6.575c-19.607 11.322-26.325 36.393-15.003 56.001l6.572 11.387-6.576 11.387c-11.318 19.607-4.6 44.679 15.007 56l11.387 6.576v13.15c0 22.639 18.354 40.994 40.994 40.994h13.151l6.575 11.387c11.322 19.607 36.393 26.325 56.001 15.003l11.387-6.571 11.387 6.575c19.607 11.322 44.679 4.604 56-15.003l6.576-11.387h13.15c22.639 0 40.994-18.354 40.994-40.994v-13.151l11.387-6.575c19.607-11.322 26.325-36.393 15.003-56.001zM297.702 115.716c8.655 4.996 14.842 13.062 17.428 22.713 2.586 9.65 1.261 19.734-3.735 28.384l-5.538 9.596-17.747-30.74v-35.494zM251.155 271.155l-57.791 33.365h-66.731l-57.791-33.365-33.365-57.791v-66.731l33.365-57.791 57.791-33.365h66.731l57.791 33.365 33.365 57.791v66.731zM284.517 220.539v31.351l-27.151 15.676zM247.566 277.366l-15.676 27.151h-31.351zM187.15 308.106l-27.151 15.676-27.151-15.676zM119.459 304.517h-31.352l-15.676-27.151zM62.632 267.566l-27.151-15.676v-31.351zM31.891 207.15l-15.675-27.151 15.675-27.151zM35.481 139.459v-31.352l27.151-15.676zM72.431 82.632l15.676-27.151h31.352zM132.848 51.891l27.151-15.675 27.151 15.675zM200.539 55.481h31.351l15.676 27.151zM257.366 92.431l27.151 15.676v31.352zM288.106 152.848l15.676 27.151-15.676 27.151zM247.112 55.481c9.992 0 19.384 3.889 26.452 10.956 7.063 7.063 10.956 16.46 10.957 26.452v11.079l-30.741-17.747-17.747-30.74zM173.18 28.606c8.655-4.996 18.735-6.322 28.385-3.735 9.65 2.586 17.716 8.777 22.712 17.428l5.538 9.596h-35.494l-30.741-17.747zM95.716 42.295c4.996-8.655 13.062-14.842 22.713-17.428 9.65-2.586 19.734-1.261 28.384 3.736l9.596 5.537-30.74 17.747h-35.494zM35.481 92.885c0-9.992 3.889-19.384 10.956-26.452 7.063-7.063 16.46-10.956 26.452-10.956h11.079l-17.747 30.74-30.74 17.747zM8.606 166.817c-4.996-8.655-6.322-18.735-3.735-28.385 2.586-9.65 8.777-17.716 17.428-22.712l9.596-5.538v35.495l-17.747 30.74zM22.295 244.281c-8.655-4.996-14.842-13.062-17.428-22.712-2.586-9.65-1.261-19.734 3.736-28.385l5.537-9.596 17.747 30.74v35.495zM72.885 304.517c-9.992 0-19.384-3.889-26.452-10.957-7.063-7.063-10.956-16.46-10.956-26.451v-11.08l30.74 17.747 17.747 30.741zM146.817 331.391c-8.655 4.996-18.735 6.322-28.385 3.735-9.65-2.586-17.716-8.777-22.712-17.428l-5.538-9.596h35.495l30.74 17.747zM224.281 317.702c-4.996 8.655-13.062 14.842-22.712 17.428-9.65 2.586-19.734 1.261-28.385-3.735l-9.596-5.538 30.74-17.747h35.495zM284.517 267.112c0 9.992-3.889 19.384-10.957 26.452-7.063 7.063-16.46 10.956-26.451 10.957h-11.08l17.747-30.741 30.741-17.747zM315.13 221.565c-2.586 9.65-8.777 17.716-17.428 22.712l-9.596 5.538v-35.494l17.747-30.741 5.538 9.596c4.996 8.658 6.326 18.739 3.739 28.389z" fill="#0074d9" fill-rule="nonzero" stroke="none" stroke-width="1" stroke-linecap="butt" stroke-linejoin="miter" stroke-miterlimit="10" stroke-dasharray="" stroke-dashoffset="0" font-family="none" font-weight="none" font-size="none" text-anchor="none" style="mix-blend-mode: normal" data-fill-palette-color="tertiary"></path></g><g transform="matrix(1,0,0,1,64,166.03070461715163)"><svg viewBox="0 0 192 27.93859076569675" height="27.93859076569675" width="192"><g><svg viewBox="0 0 231.74186817999174 33.72156884561891" height="27.93859076569675" width="192"><g><rect width="2.200467351054242" height="29.28066759388038" x="197.76038573574408" y="2.2204506258692653" fill="#0074d9" opacity="1" stroke-width="0" stroke="transparent" fill-opacity="1" class="rect-o-0" data-fill-palette-color="primary" rx="1%" id="o-0" data-palette-color="#0074d9"></rect></g><g transform="matrix(1,0,0,1,0,4.66050625869263)"><svg viewBox="0 0 192 24.40055632823365" height="24.40055632823365" width="192"><g id="textblocktransform"><svg viewBox="0 0 192 24.40055632823365" height="24.40055632823365" width="192" id="textblock"><g><svg viewBox="0 0 192 24.40055632823365" height="24.40055632823365" width="192"><g transform="matrix(1,0,0,1,0,0)"><svg width="192" viewBox="2.25 -35.650001525878906 287.57000732421875 36.55000305175781" height="24.40055632823365" data-palette-color="#0074d9"><path d="M12.1-34.75Q17-34.75 20.6-33.38 24.2-32 26.45-28.2 28.7-24.4 28.7-17.5L28.7-17.5Q28.7-7.8 24.35-3.9 20 0 12.65 0L12.65 0 2.25 0 2.25-34.75 12.1-34.75ZM13.25-28.3L11.3-28.3 11.3-6.45 13.2-6.45Q15.35-6.45 16.68-7.43 18-8.4 18.7-10.83 19.4-13.25 19.4-17.5L19.4-17.5Q19.4-21.75 18.68-24.13 17.95-26.5 16.63-27.4 15.3-28.3 13.25-28.3L13.25-28.3ZM32.15-34.75L52.55-34.75 51.6-28.35 41.2-28.35 41.2-20.75 50.35-20.75 50.35-14.5 41.2-14.5 41.2-6.45 52.3-6.45 52.3 0 32.15 0 32.15-34.75ZM70.4-35.65Q76.9-35.65 81.45-31.25L81.45-31.25 77.09-26.75Q75.45-28.05 74.05-28.63 72.65-29.2 70.9-29.2L70.9-29.2Q67.5-29.2 65.77-26.48 64.05-23.75 64.05-17.35L64.05-17.35Q64.05-12.75 64.59-10.2 65.15-7.65 66.3-6.63 67.45-5.6 69.4-5.6L69.4-5.6Q71.25-5.6 72.9-6.55L72.9-6.55 72.9-13.9 69.5-13.9 68.65-20.15 81.45-20.15 81.45-2.85Q78.95-1.1 75.77-0.1 72.59 0.9 69.59 0.9L69.59 0.9Q61.95 0.9 58.32-3.63 54.7-8.15 54.7-17.4L54.7-17.4Q54.7-23.35 56.75-27.45 58.8-31.55 62.35-33.6 65.9-35.65 70.4-35.65L70.4-35.65ZM102.44 0L96.44-12.9 94.49-12.9 94.49 0 85.44 0 85.44-34.75 96.29-34.75Q110.14-34.75 110.14-23.95L110.14-23.95Q110.14-17.4 104.49-14.6L104.49-14.6 112.19 0 102.44 0ZM94.49-28.45L94.49-19.05 96.54-19.05Q98.84-19.05 99.87-20.23 100.89-21.4 100.89-23.95L100.89-23.95Q100.89-26.25 99.74-27.35 98.59-28.45 96.19-28.45L96.19-28.45 94.49-28.45ZM113.74-34.75L134.14-34.75 133.19-28.35 122.79-28.35 122.79-20.75 131.94-20.75 131.94-14.5 122.79-14.5 122.79-6.45 133.89-6.45 133.89 0 113.74 0 113.74-34.75ZM137.34-34.75L157.74-34.75 156.79-28.35 146.39-28.35 146.39-20.75 155.54-20.75 155.54-14.5 146.39-14.5 146.39-6.45 157.49-6.45 157.49 0 137.34 0 137.34-34.75ZM181.48-34.75Q188.28-34.75 191.93-31.83 195.58-28.9 195.58-23.25L195.58-23.25Q195.58-17.4 192.08-14.33 188.58-11.25 182.48-11.25L182.48-11.25 179.98-11.25 179.98 0 170.93 0 170.93-34.75 181.48-34.75ZM181.63-17.7Q184.08-17.7 185.21-19 186.33-20.3 186.33-23.25L186.33-23.25Q186.33-25.85 185.23-27.13 184.13-28.4 181.63-28.4L181.63-28.4 179.98-28.4 179.98-17.7 181.63-17.7ZM198.48-34.75L207.53-34.75 207.53 0 198.48 0 198.48-34.75ZM211.98-34.75L221.03-34.75 221.03-7.05 232.88-7.05 231.93 0 211.98 0 211.98-34.75ZM248.98-35.65Q256.03-35.65 259.8-31 263.58-26.35 263.58-17.4L263.58-17.4Q263.58-8.55 259.78-3.83 255.98 0.9 248.98 0.9L248.98 0.9Q241.98 0.9 238.2-3.78 234.43-8.45 234.43-17.4L234.43-17.4Q234.43-26.2 238.2-30.93 241.98-35.65 248.98-35.65L248.98-35.65ZM248.98-29.15Q246.28-29.15 245.05-26.48 243.83-23.8 243.83-17.4L243.83-17.4Q243.83-10.95 245.05-8.28 246.28-5.6 248.98-5.6L248.98-5.6Q250.88-5.6 252-6.73 253.13-7.85 253.65-10.43 254.18-13 254.18-17.4L254.18-17.4Q254.18-23.8 252.95-26.48 251.73-29.15 248.98-29.15L248.98-29.15ZM265.02-34.75L289.82-34.75 288.87-27.9 281.72-27.9 281.72 0 272.67 0 272.67-27.9 265.02-27.9 265.02-34.75Z" opacity="1" transform="matrix(1,0,0,1,0,0)" fill="#0074d9" class="undefined-text-0" data-fill-palette-color="primary" id="text-0"></path></svg></g></svg></g></svg></g></svg></g><g transform="matrix(1,0,0,1,205.7212388225424,0)"><svg viewBox="0 0 26.020629357449295 33.72156884561891" height="33.72156884561891" width="26.020629357449295"><g><svg xmlns="http://www.w3.org/2000/svg" xmlns:xlink="http://www.w3.org/1999/xlink" version="1.1" x="0" y="0" viewBox="0.1439971923828125 0.21500015258789062 83.16799926757812 107.78199768066406" enable-background="new 0 0 83.346 107.996" xml:space="preserve" width="26.020629357449295" height="33.72156884561891" class="icon-icon-0" data-fill-palette-color="accent" id="icon-0"><g fill="#24a8df" data-fill-palette-color="accent"><circle fill="#24a8df" cx="61.613" cy="80.894" r="11" data-fill-palette-color="accent"></circle><path fill="#24a8df" d="M54.675 90.979v17.018l6.938-5.005 6.939 5.005V90.978c-1.973 1.36-4.361 2.161-6.939 2.161C59.036 93.139 56.647 92.338 54.675 90.979z" data-fill-palette-color="accent"></path><path fill="#24a8df" d="M18.312 21.883h54c1.104 0 2-0.896 2-2 0-1.104-0.896-2-2-2h-54c-1.104 0-2 0.896-2 2S17.209 21.883 18.312 21.883z" data-fill-palette-color="accent"></path><path fill="#24a8df" d="M18.312 30.508h54c1.104 0 2-0.896 2-2 0-1.104-0.896-2-2-2h-54c-1.104 0-2 0.896-2 2S17.209 30.508 18.312 30.508z" data-fill-palette-color="accent"></path><path fill="#24a8df" d="M18.312 39.133h54c1.104 0 2-0.896 2-2 0-1.104-0.896-2-2-2h-54c-1.104 0-2 0.896-2 2S17.209 39.133 18.312 39.133z" data-fill-palette-color="accent"></path><path fill="#24a8df" d="M18.312 47.758h54c1.104 0 2-0.896 2-2 0-1.104-0.896-2-2-2h-54c-1.104 0-2 0.896-2 2S17.209 47.758 18.312 47.758z" data-fill-palette-color="accent"></path><path fill="#24a8df" d="M74.312 54.383c0-1.104-0.896-2-2-2h-54c-1.104 0-2 0.896-2 2 0 1.104 0.896 2 2 2h54C73.416 56.383 74.312 55.486 74.312 54.383z" data-fill-palette-color="accent"></path><path fill="#24a8df" d="M50.301 63.008c0-1.105-0.896-2-2-2H18.312c-1.104 0-2 0.895-2 2 0 1.104 0.896 2 2 2h29.988C49.404 65.008 50.301 64.111 50.301 63.008z" data-fill-palette-color="accent"></path><path fill="#24a8df" d="M38.295 69.633H18.312c-1.104 0-2 0.895-2 2 0 1.104 0.896 2 2 2h19.982c1.104 0 2-0.896 2-2C40.295 70.527 39.398 69.633 38.295 69.633z" data-fill-palette-color="accent"></path><path fill="#24a8df" d="M38.295 78.258H18.312c-1.104 0-2 0.895-2 2 0 1.104 0.896 2 2 2h19.982c1.104 0 2-0.896 2-2C40.295 79.152 39.398 78.258 38.295 78.258z" data-fill-palette-color="accent"></path><path fill="#24a8df" d="M79.312 7.383h-3.168V4.215c0-2.209-1.791-4-4-4h-68c-2.209 0-4 1.791-4 4v86c0 2.209 1.791 4 4 4h3.168v3.168c0 2.209 1.791 4 4 4h42.362v-4H11.312v-86h68v86h-9.76v4h9.76c2.209 0 4-1.791 4-4v-86C83.312 9.173 81.521 7.383 79.312 7.383zM72.145 7.383H11.312c-2.209 0-4 1.791-4 4v78.832H4.145v-86h68V7.383z" data-fill-palette-color="accent"></path></g></svg></g></svg></g></svg></g></svg></g></svg></g><defs></defs></svg><rect width="320" height="360" fill="none" stroke="none" visibility="hidden"></rect></g></svg></g></svg>